<svg width="108" height="30" viewBox="0 0 108 30" fill="none" xmlns="http://www.w3.org/2000/svg">
<path d="M107.387 10.6902C107.569 11.008 107.716 11.4732 107.83 12.086C107.943 12.6762 108 13.2095 108 13.6861C108 14.299 107.932 14.9798 107.796 15.7288C107.66 16.4778 107.535 17.0566 107.421 17.4651C105.855 20.3249 103.54 21.7547 100.476 21.7547C99.3413 21.7547 98.1838 21.3803 97.0035 20.6313C95.8233 19.8823 95.0063 19.0198 94.5523 18.0439C93.9395 16.1147 93.6331 14.8777 93.6331 14.333C93.6331 13.4251 93.826 12.4605 94.2119 11.4392C94.6204 10.4179 95.1311 9.53269 95.7439 8.7837C96.1524 8.26168 96.856 7.8191 97.8547 7.45596C98.8533 7.07012 99.7612 6.8772 100.578 6.8772C102.167 6.8772 103.506 7.1836 104.596 7.79641C105.708 8.38651 106.638 9.35112 107.387 10.6902ZM104.425 16.1714C104.539 15.9444 104.596 15.1841 104.596 13.8904C104.596 13.2322 104.471 12.5854 104.221 11.9499C103.994 11.3144 103.654 10.7696 103.2 10.3157C103.154 10.2703 103.029 10.2022 102.825 10.1114C102.621 9.99796 102.337 9.89583 101.974 9.80505C101.634 9.69156 101.236 9.63482 100.783 9.63482C99.5115 9.63482 98.5809 10.1455 97.9908 11.1668C97.4007 12.1882 97.1057 13.3457 97.1057 14.6394C97.1057 14.8437 97.1738 15.2635 97.3099 15.8991C97.4461 16.5346 97.5483 16.9431 97.6164 17.1247C97.7979 17.4424 98.1611 17.8169 98.7058 18.2481C99.2732 18.6567 99.886 18.8609 100.544 18.8609C101.566 18.8609 102.371 18.6226 102.961 18.146C103.574 17.6467 104.062 16.9885 104.425 16.1714Z" fill="black"/>
<path d="M89.7584 13.0733C89.7584 14.1173 89.4974 15.0025 88.9753 15.7288C88.4533 16.4324 87.7611 17.0565 86.8986 17.6012C85.7184 18.2367 84.3453 18.5658 82.7792 18.5885C82.6884 18.8609 82.643 19.1446 82.643 19.4396C82.643 19.712 82.7906 19.9163 83.0856 20.0524C83.4034 20.1659 83.9594 20.2567 84.7538 20.3248C85.412 20.3702 86.1496 20.5177 86.9667 20.7674C87.8065 20.9943 88.4647 21.2554 88.9413 21.5504C89.5314 21.9816 89.9399 22.4469 90.1669 22.9462C90.4166 23.4456 90.5414 24.0697 90.5414 24.8187C90.5414 25.7947 90.0875 26.6117 89.1796 27.2699C88.2945 27.9508 87.2504 28.4501 86.0475 28.7679C84.8446 29.0856 83.7892 29.2445 82.8813 29.2445C81.7919 29.2445 80.8614 29.1083 80.0897 28.836C79.3407 28.5863 78.6257 28.2345 77.9449 27.7806C77.4682 27.4402 77.0937 27.0089 76.8214 26.4869C76.549 25.9649 76.4128 25.4202 76.4128 24.8528C76.4128 24.2853 76.5944 23.7406 76.9576 23.2186C77.3434 22.6966 77.8087 22.2427 78.3534 21.8568C78.8981 21.4937 79.4088 21.244 79.8854 21.1078C79.7038 20.8809 79.5677 20.6879 79.4769 20.5291C79.4088 20.3475 79.3747 20.1432 79.3747 19.9163C79.3747 19.1446 79.5677 18.4977 79.9535 17.9757C78.8641 17.6126 78.0016 16.9657 77.3661 16.0352C76.7533 15.1046 76.4469 14.0152 76.4469 12.7669C76.4469 11.9498 76.6398 11.2122 77.0256 10.554C77.4115 9.87307 77.9449 9.22622 78.6257 8.61341C79.7833 7.56937 81.3834 7.04736 83.4261 7.04736C83.6984 7.04736 84.0729 7.09275 84.5495 7.18353C85.0262 7.27432 85.4914 7.39915 85.9454 7.55803C86.6717 7.24028 87.5228 6.91118 88.4987 6.57073C89.4747 6.23028 90.1329 6.06006 90.4733 6.06006C90.9953 6.06006 91.3812 6.15084 91.6308 6.33242C91.9032 6.49129 92.0394 6.85444 92.0394 7.42185C92.0394 7.94387 91.733 8.31836 91.1202 8.54532C90.5301 8.77229 89.6335 8.98791 88.4306 9.19217C89.3158 10.2589 89.7584 11.5526 89.7584 13.0733ZM82.6771 15.7969C83.9935 15.7969 84.9467 15.5245 85.5368 14.9798C86.1496 14.4351 86.456 13.618 86.456 12.5286C86.456 10.7355 85.4006 9.83902 83.2899 9.83902C82.4728 9.83902 81.826 9.92981 81.3493 10.1114C80.8954 10.293 80.5209 10.5994 80.2258 11.0306C79.8173 11.5753 79.613 12.3129 79.613 13.2435C79.613 13.9698 79.9081 14.5826 80.4982 15.0819C81.111 15.5585 81.8373 15.7969 82.6771 15.7969ZM79.613 25.0911C79.613 25.4769 79.9648 25.806 80.6684 26.0784C81.3947 26.3734 82.1664 26.5209 82.9835 26.5209C83.8913 26.5209 84.8219 26.3507 85.7751 26.0103C86.7511 25.6925 87.2391 25.2613 87.2391 24.7166C87.2391 23.9222 86.5355 23.4115 85.1283 23.1846C84.629 23.0938 83.9027 22.9235 82.9494 22.6739C82.8359 22.6512 82.6998 22.6171 82.5409 22.5718C82.4047 22.5264 82.2572 22.481 82.0983 22.4356C81.599 22.6171 81.0543 22.9916 80.4642 23.5591C79.8967 24.1492 79.613 24.6598 79.613 25.0911Z" fill="black"/>
<path d="M72.7456 10.6902C72.9272 11.008 73.0747 11.4732 73.1882 12.086C73.3017 12.6762 73.3584 13.2095 73.3584 13.6861C73.3584 14.5713 73.1655 15.831 72.7796 17.4651C71.2136 20.3249 68.8985 21.7547 65.8345 21.7547C64.6997 21.7547 63.5422 21.3803 62.3619 20.6313C61.1817 19.8823 60.3646 19.0198 59.9107 18.0439C59.2979 16.092 58.9915 14.855 58.9915 14.333C58.9915 13.4251 59.1844 12.4605 59.5703 11.4392C59.9788 10.4179 60.4895 9.53269 61.1023 8.7837C61.4881 8.26168 62.1804 7.8191 63.179 7.45596C64.1777 7.07012 65.0855 6.8772 65.9026 6.8772C67.4913 6.8772 68.8418 7.1836 69.9539 7.79641C71.066 8.38651 71.9966 9.35112 72.7456 10.6902ZM69.7837 16.1714C69.8972 15.8764 69.9539 15.116 69.9539 13.8904C69.9539 13.2322 69.8291 12.5854 69.5794 11.9499C69.3525 11.3144 69.012 10.7696 68.5581 10.3157C68.5127 10.2703 68.3879 10.2022 68.1836 10.1114C67.9793 9.99796 67.6956 9.89583 67.3325 9.80505C66.992 9.69156 66.5948 9.63482 66.1409 9.63482C64.8699 9.63482 63.9393 10.1455 63.3492 11.1668C62.7591 12.1882 62.4641 13.3457 62.4641 14.6394C62.4641 14.8664 62.5208 15.2976 62.6343 15.9331C62.7705 16.5686 62.884 16.9658 62.9748 17.1247C63.0428 17.2835 63.2131 17.5105 63.4854 17.8056C63.7805 18.0779 64.1323 18.3276 64.5408 18.5545C64.972 18.7588 65.4146 18.8609 65.8685 18.8609C66.8899 18.8609 67.707 18.6226 68.3198 18.146C68.9326 17.6467 69.4206 16.9885 69.7837 16.1714Z" fill="black"/>
<path d="M44.4584 0C44.8897 0 45.2755 0.113483 45.6159 0.340449C45.9791 0.567414 46.1947 0.964602 46.2628 1.53201C46.5352 3.32504 46.7054 5.11806 46.7735 6.91108C46.8643 8.68141 46.9096 10.69 46.9096 12.937C46.9096 13.8903 46.8302 15.6265 46.6713 18.1458C47.67 18.2366 48.4417 18.282 48.9864 18.282C49.3722 18.282 50.246 18.2253 51.6078 18.1118C52.4022 17.9983 53.0944 17.9416 53.6845 17.9416C54.2293 17.9416 54.7286 17.9983 55.1825 18.1118C55.6364 18.2026 56.1017 18.3615 56.5784 18.5884C57.055 18.8608 57.2933 19.2807 57.2933 19.8481C57.2933 20.302 57.1458 20.7105 56.8507 21.0737C56.5784 21.4368 56.2492 21.6184 55.8634 21.6184C55.5911 21.6184 55.1598 21.573 54.5697 21.4822C53.503 21.3234 52.4816 21.2439 51.5057 21.2439C51.1879 21.2439 50.8248 21.2666 50.4163 21.312C50.0304 21.3347 49.7467 21.346 49.5651 21.346C49.0204 21.4141 48.4757 21.4482 47.931 21.4482C46.8189 21.4482 45.8202 21.3914 44.9351 21.278C44.4811 21.2326 44.0272 21.0623 43.5733 20.7673C43.1193 20.4495 42.8924 19.9956 42.8924 19.4055C42.8924 19.0651 42.9378 18.1912 43.0285 16.7841C43.1874 14.4463 43.2669 12.6646 43.2669 11.439C43.2669 10.4858 43.2215 9.48713 43.1307 8.44309C43.0399 7.39906 42.9832 6.74086 42.9605 6.4685C42.7562 4.5393 42.6541 2.95054 42.6541 1.70224C42.6541 1.11213 42.7902 0.680896 43.0626 0.408538C43.3576 0.136179 43.8229 0 44.4584 0Z" fill="black"/>
<path d="M29.8277 28.5635C28.9653 28.5635 28.239 28.4159 27.6489 28.1209C27.0815 27.8485 26.6502 27.5081 26.3552 27.0996C26.0828 26.7137 25.9466 26.3733 25.9466 26.0782C25.9466 25.6924 26.0828 25.386 26.3552 25.159C26.6275 24.9547 26.9566 24.8526 27.3425 24.8526C27.5694 24.8526 27.785 24.9207 27.9893 25.0569C28.1936 25.193 28.3071 25.2725 28.3298 25.2952C28.4886 25.4087 28.6475 25.4994 28.8064 25.5675C28.9653 25.6583 29.1355 25.7037 29.3171 25.7037C29.8164 25.7037 30.2249 25.3746 30.5427 24.7164C30.8604 24.0582 31.1782 22.9915 31.4959 21.5162C30.4746 20.0182 29.6235 18.5203 28.9426 17.0223L28.1595 15.2179C28.0461 14.9456 27.7283 14.242 27.2063 13.1072C26.707 11.9496 26.2076 10.9283 25.7083 10.0431C25.3906 9.40764 25.2317 8.9764 25.2317 8.74944C25.2317 8.18203 25.4246 7.76214 25.8104 7.48978C26.219 7.21743 26.6843 7.08125 27.2063 7.08125C27.5694 7.08125 27.8418 7.16068 28.0234 7.31956C28.2276 7.45574 28.4546 7.71675 28.7043 8.10259C29.3624 9.19202 30.0774 10.8262 30.8491 13.005C31.303 14.2533 31.6661 15.2066 31.9385 15.8648C32.2109 16.5003 32.54 17.1471 32.9258 17.8053C33.3116 16.9202 33.7996 15.4109 34.3897 13.2774C34.7529 12.0518 35.0479 11.0758 35.2749 10.3495C35.5245 9.60056 35.7969 8.91966 36.092 8.30686C36.2962 7.89832 36.5459 7.56922 36.8409 7.31956C37.1587 7.0699 37.5105 6.94507 37.8963 6.94507C38.2822 6.94507 38.6907 7.0926 39.1219 7.38765C39.5759 7.66001 39.8028 7.98911 39.8028 8.37495C39.8028 8.60191 39.7234 8.87427 39.5645 9.19202C38.6794 11.2347 37.8963 13.1639 37.2154 14.9796C36.5572 16.7726 35.9217 18.7472 35.3089 20.9034C34.9458 22.1063 34.5599 23.2525 34.1514 24.3419C33.7656 25.4314 33.4932 26.1009 33.3343 26.3506C32.8804 26.9861 32.3697 27.5081 31.8023 27.9166C31.2349 28.3479 30.5767 28.5635 29.8277 28.5635Z" fill="black"/>
<path d="M19.6438 0.102268C19.9616 0.102268 20.3474 0.317885 20.8013 0.749118C21.278 1.15765 21.5163 1.50945 21.5163 1.80451C21.5163 3.18899 21.4709 5.08415 21.3801 7.48998C21.3574 8.08008 21.3347 8.79502 21.312 9.63479C21.2893 10.4519 21.278 11.4051 21.278 12.4946C21.278 15.9444 21.4822 18.4864 21.8908 20.1206C21.8681 20.6653 21.6525 21.0625 21.2439 21.3121C20.8354 21.5391 20.4268 21.6526 20.0183 21.6526C19.1104 21.6526 18.509 21.3348 18.2139 20.6993C17.9416 20.0638 17.8054 19.156 17.8054 17.9758C17.8054 13.5953 17.8508 9.5667 17.9416 5.88987C15.3315 8.79502 13.3001 11.2349 11.8476 13.2095C11.8476 13.2095 11.6433 13.3457 11.2348 13.618C10.8489 13.9585 10.5312 14.1287 10.2815 14.1287C9.6914 14.1287 9.20343 13.9812 8.81759 13.6861C8.43175 13.3911 8.05725 12.9598 7.69411 12.3924L6.05996 10.0774C4.92514 8.48862 4.09672 7.28571 3.5747 6.46863C3.5747 8.55671 3.67683 11.3938 3.8811 14.9798C4.03997 17.0452 4.11941 18.5999 4.11941 19.6439C4.11941 20.1887 3.98323 20.6539 3.71088 21.0398C3.43852 21.4029 3.00729 21.5845 2.41718 21.5845C1.82707 21.5845 1.33909 21.471 0.953252 21.244C0.590109 21.0171 0.397189 20.6766 0.374492 20.2227C0.397189 19.8369 0.408537 19.2014 0.408537 18.3162C0.408537 16.5459 0.351796 14.3897 0.238313 11.8477L0.170224 10.0093L0.102134 7.62616C0.0794376 6.92256 0.0567413 6.10549 0.0340449 5.17493C0.0113484 4.22168 0 3.18899 0 2.07686C0 0.715074 0.737636 0.0341797 2.21291 0.0341797C2.66684 0.0341797 3.12077 0.147662 3.5747 0.374627C4.05132 0.601591 4.40312 0.93069 4.63008 1.36192C4.81166 2.1563 5.4812 3.4727 6.63872 5.31111C7.79624 7.14953 8.93107 8.87446 10.0432 10.4859C11.0418 9.21491 11.8589 8.26166 12.4944 7.62616C13.5838 6.51403 14.4804 5.48134 15.184 4.52808C15.9102 3.57483 16.6933 2.42866 17.533 1.08957C17.7373 0.817208 18.0324 0.590243 18.4182 0.408671C18.804 0.204403 19.2126 0.102268 19.6438 0.102268Z" fill="black"/>
</svg>
