<svg width="127" height="35" viewBox="0 0 127 35" fill="none" xmlns="http://www.w3.org/2000/svg">
<path d="M126.172 12.5601C126.385 12.9334 126.559 13.4801 126.692 14.2001C126.825 14.8934 126.892 15.5201 126.892 16.0801C126.892 16.8001 126.812 17.6001 126.652 18.4801C126.492 19.3601 126.345 20.0401 126.212 20.5201C124.372 23.8801 121.652 25.5601 118.052 25.5601C116.719 25.5601 115.359 25.1201 113.972 24.2401C112.585 23.3601 111.625 22.3467 111.092 21.2001C110.372 18.9334 110.012 17.4801 110.012 16.8401C110.012 15.7734 110.239 14.6401 110.692 13.4401C111.172 12.2401 111.772 11.2001 112.492 10.3201C112.972 9.70675 113.799 9.18675 114.972 8.76008C116.145 8.30675 117.212 8.08008 118.172 8.08008C120.039 8.08008 121.612 8.44008 122.892 9.16008C124.199 9.85341 125.292 10.9867 126.172 12.5601ZM122.692 19.0001C122.825 18.7334 122.892 17.8401 122.892 16.3201C122.892 15.5467 122.745 14.7867 122.452 14.0401C122.185 13.2934 121.785 12.6534 121.252 12.1201C121.199 12.0667 121.052 11.9867 120.812 11.8801C120.572 11.7467 120.239 11.6267 119.812 11.5201C119.412 11.3867 118.945 11.3201 118.412 11.3201C116.919 11.3201 115.825 11.9201 115.132 13.1201C114.439 14.3201 114.092 15.6801 114.092 17.2001C114.092 17.4401 114.172 17.9334 114.332 18.6801C114.492 19.4267 114.612 19.9067 114.692 20.1201C114.905 20.4934 115.332 20.9334 115.972 21.4401C116.639 21.9201 117.359 22.1601 118.132 22.1601C119.332 22.1601 120.279 21.8801 120.972 21.3201C121.692 20.7334 122.265 19.9601 122.692 19.0001Z" fill="white"/>
<path d="M105.459 15.3601C105.459 16.5868 105.153 17.6268 104.539 18.4801C103.926 19.3068 103.113 20.0401 102.099 20.6801C100.713 21.4268 99.0994 21.8135 97.2594 21.8401C97.1527 22.1601 97.0994 22.4935 97.0994 22.8401C97.0994 23.1601 97.2727 23.4001 97.6194 23.5601C97.9927 23.6935 98.646 23.8001 99.5794 23.8801C100.353 23.9335 101.219 24.1068 102.179 24.4001C103.166 24.6668 103.939 24.9735 104.499 25.3201C105.193 25.8268 105.673 26.3735 105.939 26.9601C106.233 27.5468 106.379 28.2801 106.379 29.1601C106.379 30.3068 105.846 31.2668 104.779 32.0401C103.739 32.8401 102.513 33.4268 101.099 33.8001C99.686 34.1735 98.446 34.3601 97.3794 34.3601C96.0994 34.3601 95.006 34.2001 94.0994 33.8801C93.2194 33.5868 92.3794 33.1735 91.5794 32.6401C91.0194 32.2401 90.5794 31.7335 90.2594 31.1201C89.9394 30.5068 89.7794 29.8668 89.7794 29.2001C89.7794 28.5335 89.9927 27.8934 90.4194 27.2801C90.8727 26.6668 91.4194 26.1335 92.0594 25.6801C92.6994 25.2535 93.2994 24.9601 93.8594 24.8001C93.646 24.5335 93.486 24.3068 93.3794 24.1201C93.2994 23.9068 93.2594 23.6668 93.2594 23.4001C93.2594 22.4935 93.486 21.7335 93.9394 21.1201C92.6594 20.6935 91.646 19.9335 90.8994 18.8401C90.1794 17.7468 89.8194 16.4668 89.8194 15.0001C89.8194 14.0401 90.046 13.1735 90.4994 12.4001C90.9527 11.6001 91.5794 10.8401 92.3794 10.1201C93.7394 8.89345 95.6194 8.28012 98.0194 8.28012C98.3394 8.28012 98.7794 8.33345 99.3394 8.44012C99.8994 8.54678 100.446 8.69345 100.979 8.88012C101.833 8.50678 102.833 8.12012 103.979 7.72012C105.126 7.32012 105.899 7.12012 106.299 7.12012C106.913 7.12012 107.366 7.22678 107.659 7.44012C107.979 7.62678 108.139 8.05345 108.139 8.72012C108.139 9.33345 107.779 9.77345 107.059 10.0401C106.366 10.3068 105.313 10.5601 103.899 10.8001C104.939 12.0535 105.459 13.5735 105.459 15.3601ZM97.1394 18.5601C98.686 18.5601 99.806 18.2401 100.499 17.6001C101.219 16.9601 101.579 16.0001 101.579 14.7201C101.579 12.6135 100.339 11.5601 97.8594 11.5601C96.8994 11.5601 96.1394 11.6668 95.5794 11.8801C95.046 12.0935 94.606 12.4535 94.2594 12.9601C93.7794 13.6001 93.5394 14.4668 93.5394 15.5601C93.5394 16.4135 93.886 17.1335 94.5794 17.7201C95.2994 18.2801 96.1527 18.5601 97.1394 18.5601ZM93.5394 29.4801C93.5394 29.9335 93.9527 30.3201 94.7794 30.6401C95.6327 30.9868 96.5394 31.1601 97.4994 31.1601C98.566 31.1601 99.6594 30.9601 100.779 30.5601C101.926 30.1868 102.499 29.6801 102.499 29.0401C102.499 28.1068 101.673 27.5068 100.019 27.2401C99.4327 27.1335 98.5794 26.9335 97.4594 26.6401C97.326 26.6135 97.166 26.5735 96.9794 26.5201C96.8194 26.4668 96.646 26.4135 96.4594 26.3601C95.8727 26.5735 95.2327 27.0135 94.5394 27.6801C93.8727 28.3735 93.5394 28.9735 93.5394 29.4801Z" fill="white"/>
<path d="M85.4706 12.5601C85.684 12.9334 85.8573 13.4801 85.9906 14.2001C86.124 14.8934 86.1906 15.5201 86.1906 16.0801C86.1906 17.1201 85.964 18.6001 85.5106 20.5201C83.6706 23.8801 80.9506 25.5601 77.3506 25.5601C76.0173 25.5601 74.6573 25.1201 73.2706 24.2401C71.884 23.3601 70.924 22.3467 70.3906 21.2001C69.6706 18.9067 69.3106 17.4534 69.3106 16.8401C69.3106 15.7734 69.5373 14.6401 69.9906 13.4401C70.4706 12.2401 71.0706 11.2001 71.7906 10.3201C72.244 9.70675 73.0573 9.18675 74.2306 8.76008C75.404 8.30675 76.4706 8.08008 77.4306 8.08008C79.2973 8.08008 80.884 8.44008 82.1906 9.16008C83.4973 9.85341 84.5906 10.9867 85.4706 12.5601ZM81.9906 19.0001C82.124 18.6534 82.1906 17.7601 82.1906 16.3201C82.1906 15.5467 82.044 14.7867 81.7506 14.0401C81.484 13.2934 81.084 12.6534 80.5506 12.1201C80.4973 12.0667 80.3506 11.9867 80.1106 11.8801C79.8706 11.7467 79.5373 11.6267 79.1106 11.5201C78.7106 11.3867 78.244 11.3201 77.7106 11.3201C76.2173 11.3201 75.124 11.9201 74.4306 13.1201C73.7373 14.3201 73.3906 15.6801 73.3906 17.2001C73.3906 17.4667 73.4573 17.9734 73.5906 18.7201C73.7506 19.4667 73.884 19.9334 73.9906 20.1201C74.0706 20.3067 74.2706 20.5734 74.5906 20.9201C74.9373 21.2401 75.3506 21.5334 75.8306 21.8001C76.3373 22.0401 76.8573 22.1601 77.3906 22.1601C78.5906 22.1601 79.5506 21.8801 80.2706 21.3201C80.9906 20.7334 81.564 19.9601 81.9906 19.0001Z" fill="white"/>
<path d="M52.2353 0C52.742 0 53.1953 0.133334 53.5953 0.400002C54.022 0.666668 54.2753 1.13333 54.3553 1.8C54.6753 3.90667 54.8753 6.01333 54.9553 8.12C55.062 10.2 55.1153 12.56 55.1153 15.2C55.1153 16.32 55.022 18.36 54.8353 21.32C56.0086 21.4267 56.9153 21.48 57.5553 21.48C58.0086 21.48 59.0353 21.4133 60.6353 21.28C61.5686 21.1467 62.382 21.08 63.0753 21.08C63.7153 21.08 64.302 21.1467 64.8353 21.28C65.3686 21.3867 65.9153 21.5733 66.4753 21.84C67.0353 22.16 67.3153 22.6533 67.3153 23.32C67.3153 23.8533 67.142 24.3333 66.7953 24.76C66.4753 25.1867 66.0886 25.4 65.6353 25.4C65.3153 25.4 64.8086 25.3467 64.1153 25.24C62.862 25.0533 61.662 24.96 60.5153 24.96C60.142 24.96 59.7153 24.9867 59.2353 25.04C58.782 25.0667 58.4486 25.08 58.2353 25.08C57.5953 25.16 56.9553 25.2 56.3153 25.2C55.0086 25.2 53.8353 25.1333 52.7953 25C52.262 24.9467 51.7286 24.7467 51.1953 24.4C50.662 24.0267 50.3953 23.4933 50.3953 22.8C50.3953 22.4 50.4486 21.3733 50.5553 19.72C50.742 16.9733 50.8353 14.88 50.8353 13.44C50.8353 12.32 50.782 11.1467 50.6753 9.92C50.5686 8.69333 50.502 7.92 50.4753 7.6C50.2353 5.33333 50.1153 3.46667 50.1153 2C50.1153 1.30667 50.2753 0.800002 50.5953 0.480001C50.942 0.16 51.4886 0 52.2353 0Z" fill="white"/>
<path d="M35.0453 33.5602C34.032 33.5602 33.1786 33.3868 32.4853 33.0402C31.8186 32.7202 31.312 32.3202 30.9653 31.8402C30.6453 31.3868 30.4853 30.9868 30.4853 30.6402C30.4853 30.1868 30.6453 29.8268 30.9653 29.5602C31.2853 29.3202 31.672 29.2002 32.1253 29.2002C32.392 29.2002 32.6453 29.2802 32.8853 29.4402C33.1253 29.6002 33.2586 29.6935 33.2853 29.7202C33.472 29.8535 33.6586 29.9602 33.8453 30.0402C34.032 30.1468 34.232 30.2002 34.4453 30.2002C35.032 30.2002 35.512 29.8135 35.8853 29.0402C36.2586 28.2668 36.632 27.0135 37.0053 25.2802C35.8053 23.5202 34.8053 21.7602 34.0053 20.0002L33.0853 17.8802C32.952 17.5602 32.5786 16.7335 31.9653 15.4002C31.3786 14.0402 30.792 12.8402 30.2053 11.8002C29.832 11.0535 29.6453 10.5468 29.6453 10.2802C29.6453 9.61349 29.872 9.12016 30.3253 8.80016C30.8053 8.48016 31.352 8.32016 31.9653 8.32016C32.392 8.32016 32.712 8.41349 32.9253 8.60016C33.1653 8.76016 33.432 9.06682 33.7253 9.52016C34.4986 10.8002 35.3386 12.7202 36.2453 15.2802C36.7786 16.7468 37.2053 17.8668 37.5253 18.6402C37.8453 19.3868 38.232 20.1468 38.6853 20.9202C39.1386 19.8802 39.712 18.1068 40.4053 15.6002C40.832 14.1602 41.1786 13.0135 41.4453 12.1602C41.7386 11.2802 42.0586 10.4802 42.4053 9.76016C42.6453 9.28016 42.9386 8.89349 43.2853 8.60016C43.6586 8.30682 44.072 8.16016 44.5253 8.16016C44.9786 8.16016 45.4586 8.33349 45.9653 8.68016C46.4986 9.00016 46.7653 9.38682 46.7653 9.84016C46.7653 10.1068 46.672 10.4268 46.4853 10.8002C45.4453 13.2002 44.5253 15.4668 43.7253 17.6002C42.952 19.7068 42.2053 22.0268 41.4853 24.5602C41.0586 25.9735 40.6053 27.3202 40.1253 28.6002C39.672 29.8802 39.352 30.6668 39.1653 30.9602C38.632 31.7068 38.032 32.3202 37.3653 32.8002C36.6986 33.3068 35.9253 33.5602 35.0453 33.5602Z" fill="white"/>
<path d="M23.08 0.120038C23.4533 0.120038 23.9067 0.373371 24.44 0.880038C25 1.36004 25.28 1.77337 25.28 2.12004C25.28 3.74671 25.2267 5.97337 25.12 8.80004C25.0933 9.49337 25.0667 10.3334 25.04 11.32C25.0133 12.28 25 13.4 25 14.68C25 18.7334 25.24 21.72 25.72 23.64C25.6933 24.28 25.44 24.7467 24.96 25.04C24.48 25.3067 24 25.44 23.52 25.44C22.4533 25.44 21.7467 25.0667 21.4 24.32C21.08 23.5734 20.92 22.5067 20.92 21.12C20.92 15.9734 20.9733 11.24 21.08 6.92004C18.0133 10.3334 15.6267 13.2 13.92 15.52C13.92 15.52 13.68 15.68 13.2 16C12.7467 16.4 12.3733 16.6 12.08 16.6C11.3867 16.6 10.8133 16.4267 10.36 16.08C9.90667 15.7334 9.46667 15.2267 9.04 14.56L7.12 11.84C5.78667 9.97337 4.81333 8.56004 4.2 7.60004C4.2 10.0534 4.32 13.3867 4.56 17.6C4.74667 20.0267 4.84 21.8534 4.84 23.08C4.84 23.72 4.68 24.2667 4.36 24.72C4.04 25.1467 3.53333 25.36 2.84 25.36C2.14667 25.36 1.57333 25.2267 1.12 24.96C0.693333 24.6934 0.466667 24.2934 0.44 23.76C0.466667 23.3067 0.48 22.56 0.48 21.52C0.48 19.44 0.413333 16.9067 0.28 13.92L0.2 11.76L0.12 8.96004C0.0933332 8.13337 0.0666667 7.17337 0.0400002 6.08004C0.0133335 4.96004 0 3.74671 0 2.44004C0 0.840039 0.866667 0.0400391 2.6 0.0400391C3.13333 0.0400391 3.66667 0.173372 4.2 0.440039C4.76 0.706705 5.17333 1.09337 5.44 1.60004C5.65333 2.53337 6.44 4.08004 7.8 6.24004C9.16 8.40004 10.4933 10.4267 11.8 12.32C12.9733 10.8267 13.9333 9.70671 14.68 8.96004C15.96 7.65337 17.0133 6.44004 17.84 5.32004C18.6933 4.20004 19.6133 2.85337 20.6 1.28004C20.84 0.960038 21.1867 0.693372 21.64 0.480038C22.0933 0.240038 22.5733 0.120038 23.08 0.120038Z" fill="white"/>
</svg>
