<svg width="101" height="100" viewBox="0 0 101 100" fill="none" xmlns="http://www.w3.org/2000/svg">
<path d="M85.8723 50C85.8723 69.33 70.2022 85 50.8723 85C31.5423 85 15.8723 69.33 15.8723 50C15.8723 30.67 31.5423 15 50.8723 15C70.2022 15 85.8723 30.67 85.8723 50Z" fill="white"/>
<path fill-rule="evenodd" clip-rule="evenodd" d="M100.818 50C100.818 77.6142 78.4317 100 50.8175 100C23.2033 100 0.817505 77.6142 0.817505 50C0.817505 22.3858 23.2033 0 50.8175 0C78.4317 0 100.818 22.3858 100.818 50ZM50.8175 85C70.1475 85 85.8175 69.33 85.8175 50C85.8175 30.67 70.1475 15 50.8175 15C31.4875 15 15.8175 30.67 15.8175 50C15.8175 69.33 31.4875 85 50.8175 85Z" fill="#F2F2F2"/>
<circle cx="50.8723" cy="50" r="33.5" stroke="#EBEBEB" stroke-width="3"/>
<mask id="path-4-inside-1_5_49" fill="white">
<path d="M85.8722 50C85.8722 44.8788 84.7484 39.8199 82.58 35.1804C80.4116 30.5409 77.2514 26.4338 73.3226 23.1489C69.3937 19.8639 64.7918 17.4812 59.8416 16.1688C54.8914 14.8564 49.7134 14.6463 44.6732 15.5533C39.6329 16.4604 34.8531 18.4625 30.671 21.4183C26.4889 24.3742 23.0065 28.2118 20.4693 32.6604C17.9322 37.109 16.4022 42.0601 15.9873 47.1645C15.5724 52.2689 16.2827 57.4022 18.0681 62.2021L50.8722 50H85.8722Z"/>
</mask>
<path d="M85.8722 50C85.8722 44.8788 84.7484 39.8199 82.58 35.1804C80.4116 30.5409 77.2514 26.4338 73.3226 23.1489C69.3937 19.8639 64.7918 17.4812 59.8416 16.1688C54.8914 14.8564 49.7134 14.6463 44.6732 15.5533C39.6329 16.4604 34.8531 18.4625 30.671 21.4183C26.4889 24.3742 23.0065 28.2118 20.4693 32.6604C17.9322 37.109 16.4022 42.0601 15.9873 47.1645C15.5724 52.2689 16.2827 57.4022 18.0681 62.2021L50.8722 50H85.8722Z" stroke="#52BF66" stroke-width="6" mask="url(#path-4-inside-1_5_49)"/>
<ellipse cx="50.8832" cy="49.8836" rx="32" ry="31.8836" fill="white"/>
<path d="M40.5 45L44.8301 52.5H36.1699L40.5 45Z" fill="#52BF66"/>
<path d="M54.0353 44.8182H56.188V51.4304C56.188 52.1728 56.0107 52.8224 55.6561 53.3793C55.3047 53.9361 54.8125 54.3703 54.1795 54.6818C53.5464 54.9901 52.809 55.1442 51.9671 55.1442C51.122 55.1442 50.3829 54.9901 49.7498 54.6818C49.1168 54.3703 48.6246 53.9361 48.2732 53.3793C47.9219 52.8224 47.7463 52.1728 47.7463 51.4304V44.8182H49.899V51.2464C49.899 51.6342 49.9835 51.9789 50.1525 52.2805C50.3249 52.5821 50.5668 52.8191 50.8784 52.9915C51.1899 53.1638 51.5528 53.25 51.9671 53.25C52.3848 53.25 52.7477 53.1638 53.0559 52.9915C53.3675 52.8191 53.6078 52.5821 53.7768 52.2805C53.9491 51.9789 54.0353 51.6342 54.0353 51.2464V44.8182ZM57.9591 55V44.8182H61.9762C62.7484 44.8182 63.4064 44.9657 63.9499 45.2607C64.4935 45.5523 64.9078 45.9583 65.1928 46.4787C65.4812 46.9957 65.6253 47.5923 65.6253 48.2685C65.6253 48.9446 65.4795 49.5412 65.1878 50.0582C64.8962 50.5753 64.4736 50.978 63.9201 51.2663C63.3699 51.5547 62.7037 51.6989 61.9215 51.6989H59.3611V49.9737H61.5735C61.9878 49.9737 62.3292 49.9025 62.5976 49.7599C62.8694 49.6141 63.0716 49.4136 63.2042 49.1584C63.3401 48.8999 63.408 48.6032 63.408 48.2685C63.408 47.9304 63.3401 47.6354 63.2042 47.3835C63.0716 47.1283 62.8694 46.9311 62.5976 46.7919C62.3259 46.6494 61.9812 46.5781 61.5636 46.5781H60.1118V55H57.9591Z" fill="black"/>
</svg>
